:SAMPLES-PER-SECOND 30
:FULLY-SPECIFIED
:DEGREES
66
root  15.8948 38.7126 -9.43733 -109.266 -84.5636 100.591
RightUpLeg  -21.7573 -4.6548 -8.82912
RightLeg  53.0974 -5.11816 -7.68606
RightFoot  -1.53211 -0.0464201 0.414332
RightToes  5.82063e-011 0 -3.6325e-017
Spine  13.2734 -1.31641 -2.06994
Spine1  11.6542 -0.967168 -2.48171
HEad  -21.2465 6.2218 -2.68051
LeftShoulder1  9.29833 -13.5255 -47.6591
LeftArm  0.547201 0.381443 -24.1384
LeftForeArm  26.7702 -26.994 -4.34277
LeftHand  -0.244104 0.0205437 5.32207
RightShoulder  4.68723 8.37984 33.4985
RightArm  5.05763 -10.7847 39.5565
RightForeArm  0.050443 33.4367 7.43587
RightHand  -1.92288 5.9953 -19.7252
LeftUpLeg  -1.78473 10.1465 -10.5256
LeftLeg  26.0814 7.51876 4.3331
LeftFoot  -17.4164 0.324498 4.15027
LeftToes  -1.33699e-010 -8.10125e-011 -3.35536e-011
67
root  14.3345 38.6862 -9.46653 -107.132 -84.699 98.4317
RightUpLeg  -23.0446 -6.77683 -8.21772
RightLeg  42.0889 -5.72322 -5.77743
RightFoot  -1.38028 -0.0933561 0.958598
RightToes  5.82063e-011 0 -3.6325e-017
Spine  12.989 -1.49865 -2.8497
Spine1  11.7542 -1.67647 -1.31374
HEad  -21.0745 6.5751 -2.76472
LeftShoulder1  9.32113 -13.643 -47.4453
LeftArm  -0.432239 -2.94632 -24.9596
LeftForeArm  28.4538 -30.9314 -5.17267
LeftHand  -0.244104 0.0205437 5.32207
RightShoulder  4.5545 8.15213 33.1322
RightArm  3.58388 -12.0804 38.5354
RightForeArm  -0.667198 39.5547 9.29318
RightHand  -2.07028 6.21271 -20.7968
LeftUpLeg  1.34263 10.1318 -10.0362
LeftLeg  25.4297 7.53495 4.23532
LeftFoot  -19.2989 0.381684 3.80045
LeftToes  -1.33699e-010 -8.10125e-011 -3.35536e-011
68
root  12.6749 38.6143 -9.51943 -108.046 -84.3941 99.5708
RightUpLeg  -23.4069 -10.9044 -7.00745
RightLeg  29.212 -5.86274 -4.01255
RightFoot  -0.510269 -0.169643 1.74535
RightToes  5.82063e-011 0 -3.6325e-017
Spine  12.0339 -1.55444 -4.14531
Spine1  12.047 -2.28539 0.122799
HEad  -20.9248 7.08191 -2.89856
LeftShoulder1  9.30444 -13.7014 -47.195
LeftArm  -1.39048 -5.84134 -25.4585
LeftForeArm  30.3161 -35.0392 -6.08346
LeftHand  -0.244104 0.0205437 5.32207
RightShoulder  4.46192 7.97825 32.9182
RightArm  2.1496 -13.0365 37.9538
RightForeArm  -1.54695 44.7012 11.1921
RightHand  -2.26325 6.64654 -21.8886
LeftUpLeg  4.57036 10.9159 -9.76739
LeftLeg  24.2702 7.45358 4.0119
LeftFoot  -20.7228 0.468828 4.18913
LeftToes  -1.33699e-010 -8.10125e-011 -3.35536e-011
69
root  10.946 38.5342 -9.58993 -109.281 -84.0983 101.102
RightUpLeg  -22.7148 -15.171 -5.74252
RightLeg  15.3601 -6.83634 -1.10418
RightFoot  0.187218 -0.274733 2.73565
RightToes  5.82063e-011 0 -3.6325e-017
Spine  10.9152 -1.70116 -5.2866
Spine1  12.2981 -2.93688 1.63432
HEad  -20.675 7.70329 -3.11143
LeftShoulder1  9.25034 -13.6928 -46.9385
LeftArm  -2.09473 -8.32027 -25.5857
LeftForeArm  32.4378 -39.04 -7.04499
LeftHand  -0.244104 0.0205437 5.32207
RightShoulder  4.41725 7.87286 32.8852
RightArm  0.125709 -14.0654 37.9573
RightForeArm  -1.28976 49.2661 13.1602
RightHand  -2.3931 7.0025 -22.4584
LeftUpLeg  8.15915 12.0179 -9.182
LeftLeg  22.4095 6.83391 3.40814
LeftFoot  -21.9787 0.50979 4.07113
LeftToes  -1.33699e-010 -8.10125e-011 -3.35536e-011
70
root  9.13126 38.3544 -9.69151 -110.333 -83.9023 102.112
RightUpLeg  -20.4344 -11.2355 -7.97257
RightLeg  3.12909 -13.8125 3.85066
RightFoot  -0.311883 -0.35772 3.70112
RightToes  5.82063e-011 0 -3.6325e-017
Spine  10.2644 -1.91766 -6.14037
Spine1  12.1885 -3.54706 2.82074
HEad  -20.3905 8.29987 -3.41178
LeftShoulder1  9.17501 -13.6778 -46.5884
LeftArm  -2.40495 -10.5962 -25.638
LeftForeArm  34.1366 -42.17 -7.87656
LeftHand  -0.244104 0.0205437 5.32207
RightShoulder  4.39765 7.80903 32.9307
RightArm  -2.35315 -15.4247 38.5854
RightForeArm  -0.912374 53.5376 15.4088
RightHand  -2.65238 7.68106 -23.5368
LeftUpLeg  12.141 12.8764 -8.13682
LeftLeg  20.9354 5.90576 2.57926
LeftFoot  -23.3635 0.42617 2.71874
LeftToes  -1.33699e-010 -8.10125e-011 -3.35536e-011
71
root  7.22965 38.0884 -9.83559 -112.415 -83.7418 103.847
RightUpLeg  -19.0694 -9.72013 -8.22212
RightLeg  -3.62775 -13.8747 5.89858
RightFoot  -1.85894 -0.390874 4.52183
RightToes  5.82063e-011 0 -3.6325e-017
Spine  9.97591 -2.0815 -6.95951
Spine1  11.9497 -4.12468 4.00125
HEad  -20.2706 8.95224 -3.84804
LeftShoulder1  9.08783 -13.6356 -46.2502
LeftArm  -2.49747 -12.7943 -25.7394
LeftForeArm  34.8438 -43.9736 -8.41677
LeftHand  -0.244104 0.0205437 5.32207
RightShoulder  4.39985 7.81805 32.9193
RightArm  -4.71857 -16.9215 39.6147
RightForeArm  -0.793142 57.3828 17.9567
RightHand  -3.0935 8.90455 -25.0697
LeftUpLeg  16.2034 13.5891 -6.75803
LeftLeg  20.4296 5.11173 1.91084
LeftFoot  -24.0042 0.267697 1.10615
LeftToes  -1.33699e-010 -8.10125e-011 -3.35536e-011
72
root  5.26604 37.8585 -10.0095 -115.255 -83.9556 106.566
RightUpLeg  -19.5445 -8.96187 -7.49445
RightLeg  -2.24614 -12.8316 5.0814
RightFoot  -2.30509 -0.281898 3.40904
RightToes  5.82063e-011 0 -3.6325e-017
Spine  9.32534 -2.35378 -7.33929
Spine1  12.0955 -4.88525 5.40988
HEad  -20.3163 9.81146 -4.41607
LeftShoulder1  9.02935 -13.5384 -46.2139
LeftArm  -2.66753 -14.6515 -25.6726
LeftForeArm  34.923 -44.6157 -8.63041
LeftHand  -0.244104 0.0205437 5.32207
RightShoulder  4.3965 7.82819 32.855
RightArm  -6.62488 -18.312 40.7474
RightForeArm  0.336727 60.6974 20.6244
RightHand  -3.29839 9.71885 -25.28
LeftUpLeg  19.7523 14.7159 -4.67095
LeftLeg  20.7092 3.64905 1.51898
LeftFoot  -23.4686 0.050542 -0.842538
LeftToes  -1.33699e-010 -8.10125e-011 -3.35536e-011
73
root  3.20176 37.6931 -10.1682 -122.689 -85.058 114.245
RightUpLeg  -21.2953 -9.34479 -5.6546
RightLeg  4.33938 -12.9 3.55251
RightFoot  0.627443 0.00233835 0.112346
RightToes  5.82063e-011 0 -3.6325e-017
Spine  8.0965 -3.02516 -5.86169
Spine1  12.5282 -5.72022 6.17879
HEad  -20.2395 10.8146 -5.08864
LeftShoulder1  9.07118 -13.4913 -46.5656
LeftArm  -2.92283 -15.5874 -25.4141
LeftForeArm  35.0753 -44.3631 -8.53516
LeftHand  -0.244104 0.0205437 5.32207
RightShoulder  4.35009 7.70673 32.8616
RightArm  -7.94123 -19.5762 41.7218
RightForeArm  1.80774 63.2816 23.1416
RightHand  -3.3677 10.0608 -25.2337
LeftUpLeg  22.4273 15.4784 -1.44052
LeftLeg  22.0866 1.5614 1.06044
LeftFoot  -22.323 -0.342542 -4.96832
LeftToes  -1.33699e-010 -8.10125e-011 -3.35536e-011
74
root  1.05193 37.5635 -10.2698 -149.605 -86.2981 141.315
RightUpLeg  -23.5142 -14.1108 -0.983776
RightLeg  12.4087 -8.23487 1.21291
RightFoot  5.48645 0.411058 -2.55344
RightToes  5.82063e-011 0 -3.6325e-017
Spine  7.15049 -3.84113 -1.85072
Spine1  12.6069 -6.13383 5.6494
HEad  -19.8795 11.8828 -5.92498
LeftShoulder1  9.21503 -13.5753 -47.0836
LeftArm  -2.87401 -15.2303 -25.296
LeftForeArm  35.1229 -43.2611 -8.16674
LeftHand  -0.244104 0.0205437 5.32207
RightShoulder  4.33111 7.60972 33.0285
RightArm  -8.86222 -20.6783 42.1268
RightForeArm  1.53408 64.647 24.8425
RightHand  -3.95479 11.2165 -27.4209
LeftUpLeg  23.7647 15.4634 2.52157
LeftLeg  25.8889 0.925647 0.834786
LeftFoot  -19.0269 -0.565205 -10.4979
LeftToes  -1.33699e-010 -8.10125e-011 -3.35536e-011
75
root  -1.03799 37.473 -10.3477 168.86 -85.484 -177.321
RightUpLeg  -25.1998 -18.2963 4.15331
RightLeg  19.6087 -1.68634 -0.804508
RightFoot  7.89558 0.733649 -4.02886
RightToes  5.82063e-011 0 -3.6325e-017
Spine  7.42295 -4.36048 2.67217
Spine1  11.8925 -6.09781 4.99481
HEad  -19.5649 13.1497 -6.95035
LeftShoulder1  9.35171 -13.6673 -47.5355
LeftArm  -2.03579 -13.9268 -25.4081
LeftForeArm  34.4314 -41.4006 -7.62284
LeftHand  -0.244104 0.0205437 5.32207
RightShoulder  4.46109 7.83859 33.3852
RightArm  -10.3308 -21.3845 41.5032
RightForeArm  0.432701 65.1117 25.5895
RightHand  -4.72025 12.8657 -29.7122
LeftUpLeg  22.3715 15.9847 6.20228
LeftLeg  33.9228 2.8415 2.51102
LeftFoot  -9.65531 0.188492 -12.4486
LeftToes  -1.33699e-010 -8.10125e-011 -3.35536e-011
76
root  -2.87301 37.3299 -10.4516 149.324 -83.3515 -157.943
RightUpLeg  -25.4089 -15.4264 5.72782
RightLeg  25.9635 -2.17572 -1.43692
RightFoot  5.90647 0.890559 -5.63221
RightToes  5.82063e-011 0 -3.6325e-017
Spine  9.05258 -4.7728 5.62187
Spine1  10.8453 -6.25646 6.07057
HEad  -19.8469 14.6349 -8.01599
LeftShoulder1  9.38885 -13.6417 -47.7991
LeftArm  -0.0983707 -12.5828 -25.3645
LeftForeArm  33.6368 -39.1253 -6.99634
LeftHand  -0.244104 0.0205437 5.32207
RightShoulder  4.68602 8.2403 33.9531
RightArm  -13.7794 -21.38 39.8846
RightForeArm  1.56912 66.3789 27.3051
RightHand  -4.84026 13.5792 -29.335
LeftUpLeg  16.975 16.1599 8.49938
LeftLeg  45.8051 5.54849 6.51022
LeftFoot  4.8879 1.14433 -8.45813
LeftToes  -1.33699e-010 -8.10125e-011 -3.35536e-011
77
root  -4.39768 37.0911 -10.5653 138.799 -81.8449 -147.416
RightUpLeg  -25.4955 -13.7777 7.15696
RightLeg  31.5035 -3.01689 -2.24619
RightFoot  1.68465 0.782474 -6.70597
RightToes  5.82063e-011 0 -3.6325e-017
Spine  11.2355 -5.34569 7.05515
Spine1  10.0849 -6.87858 8.63624
HEad  -20.8818 16.0165 -9.03037
LeftShoulder1  9.37059 -13.6102 -47.7938
LeftArm  2.88412 -11.8259 -24.8457
LeftForeArm  34.5325 -36.7868 -6.29566
LeftHand  -0.244104 0.0205437 5.32207
RightShoulder  4.78242 8.30424 34.55
RightArm  -20.0417 -20.5217 37.9088
RightForeArm  5.31438 69.7836 33.2674
RightHand  -5.25192 14.5705 -30.0964
LeftUpLeg  9.08664 15.3129 9.42531
LeftLeg  57.9993 5.48766 9.83389
LeftFoot  14.8246 0.837969 -3.85271
LeftToes  -1.33699e-010 -8.10125e-011 -3.35536e-011
78
root  -5.92324 37.0888 -10.6289 134.344 -80.7738 -143.084
RightUpLeg  -24.1952 -13.0101 7.67441
RightLeg  34.7888 -3.50153 -2.87936
RightFoot  -1.93482 0.494036 -6.12407
RightToes  5.82063e-011 0 -3.6325e-017
Spine  12.9975 -5.69413 7.70238
Spine1  9.56438 -7.43852 10.8519
HEad  -22.2388 17.1248 -10.2127
LeftShoulder1  9.40961 -13.7446 -47.6166
LeftArm  6.34375 -11.3877 -23.9336
LeftForeArm  37.2642 -34.3847 -5.52156
LeftHand  -0.244104 0.0205437 5.32207
RightShoulder  4.62038 7.89492 34.5774
RightArm  -28.6313 -19.0512 36.031
RightForeArm  14.1355 74.4749 47.5644
RightHand  -6.87635 17.1234 -34.6795
LeftUpLeg  1.39958 14.6067 9.14846
LeftLeg  67.1233 3.73262 10.3135
LeftFoot  15.0274 0.355649 -1.8813
LeftToes  -1.33699e-010 -8.10125e-011 -3.35536e-011
79
root  -7.54803 37.3511 -10.6222 136.958 -79.5385 -145.885
RightUpLeg  -21.6343 -11.8324 7.21056
RightLeg  36.0093 -3.29767 -2.85006
RightFoot  -4.68793 0.245003 -4.76143
RightToes  5.82063e-011 0 -3.6325e-017
Spine  14.0827 -5.56455 7.98296
Spine1  9.09536 -7.54748 12.1797
HEad  -23.3834 18.385 -11.816
LeftShoulder1  9.52454 -13.9677 -47.5822
LeftArm  9.46095 -10.4195 -22.7958
LeftForeArm  38.9256 -31.6581 -4.77599
LeftHand  -0.244104 0.0205437 5.32207
RightShoulder  4.24487 7.28603 33.3914
RightArm  -38.0955 -17.4124 33.9013
RightForeArm  37.6114 77.925 75.8964
RightHand  -7.92045 18.5942 -37.3083
LeftUpLeg  -5.30803 15.042 8.15919
LeftLeg  72.0633 2.13606 8.37958
LeftFoot  9.87718 0.280147 -1.86017
LeftToes  -1.33699e-010 -8.10125e-011 -3.35536e-011
80
root  -9.1758 37.6469 -10.5655 142.268 -77.9669 -151.132
RightUpLeg  -18.9335 -10.6221 6.43981
RightLeg  36.3216 -2.47701 -2.23618
RightFoot  -7.33971 0.0809181 -3.75417
RightToes  5.82063e-011 0 -3.6325e-017
Spine  14.7926 -5.27004 8.03787
Spine1  8.47312 -7.4874 13.3537
HEad  -24.2287 20.3015 -13.6691
LeftShoulder1  9.62486 -14.0704 -47.8067
LeftArm  11.6624 -8.35022 -21.4074
LeftForeArm  36.5417 -28.5115 -4.18158
LeftHand  -0.244104 0.0205437 5.32207
RightShoulder  3.71011 6.52193 31.0429
RightArm  -46.6674 -15.6966 30.942
RightForeArm  72.31 77.2262 112.961
RightHand  -7.99854 18.7571 -37.3634
LeftUpLeg  -11.6019 16.0678 7.0081
LeftLeg  73.3413 1.37777 6.30633
LeftFoot  5.31645 0.378606 -2.78755
LeftToes  -1.33699e-010 -8.10125e-011 -3.35536e-011
